<svg version="1.1" id="Layer_1" xmlns="http://www.w3.org/2000/svg" xmlns:xlink="http://www.w3.org/1999/xlink" x="0px" y="0px" viewBox="0 0 404.98 404.98" style="enable-background:new 0 0 404.98 404.98;" xml:space="preserve" width="404.98"  height="404.98" >
<g>
	<path style="" d="M202.49,36.485c54.067,0,60.471,0.206,81.823,1.18c19.742,0.901,30.464,4.199,37.6,6.972
		c9.452,3.673,16.197,8.061,23.282,15.147c7.086,7.086,11.474,13.831,15.147,23.283c2.773,7.135,6.072,17.857,6.972,37.599
		c0.974,21.352,1.18,27.756,1.18,81.824s-0.206,60.471-1.18,81.823c-0.901,19.742-4.199,30.464-6.972,37.6
		c-3.673,9.452-8.061,16.197-15.147,23.282c-7.086,7.086-13.831,11.474-23.283,15.147c-7.135,2.773-17.857,6.072-37.6,6.972
		c-21.349,0.974-27.752,1.18-81.823,1.18s-60.474-0.206-81.823-1.18c-19.742-0.901-30.464-4.199-37.6-6.972
		c-9.452-3.673-16.197-8.061-23.283-15.147c-7.086-7.086-11.474-13.831-15.147-23.283c-2.773-7.135-6.071-17.857-6.972-37.599
		c-0.974-21.352-1.18-27.756-1.18-81.824s0.206-60.471,1.18-81.823c0.901-19.742,4.199-30.464,6.972-37.6
		c3.673-9.452,8.061-16.197,15.147-23.283c7.086-7.086,13.831-11.474,23.283-15.147c7.135-2.773,17.857-6.071,37.599-6.972
		C142.019,36.691,148.423,36.485,202.49,36.485 M202.49,0c-54.993,0-61.889,0.233-83.486,1.218
		C97.451,2.202,82.731,5.625,69.851,10.63c-13.315,5.175-24.608,12.098-35.865,23.355C22.729,45.243,15.805,56.536,10.63,69.851
		c-5.006,12.88-8.429,27.599-9.412,49.153C0.233,140.601,0,147.497,0,202.49c0,54.993,0.233,61.889,1.218,83.486
		c0.983,21.553,4.406,36.272,9.412,49.153c5.175,13.315,12.098,24.608,23.355,35.865c11.257,11.257,22.55,18.181,35.865,23.355
		c12.88,5.006,27.599,8.429,49.153,9.412c21.598,0.986,28.493,1.218,83.486,1.218s61.889-0.233,83.486-1.218
		c21.553-0.983,36.272-4.406,49.153-9.412c13.315-5.175,24.608-12.098,35.865-23.355c11.257-11.257,18.181-22.55,23.355-35.865
		c5.006-12.88,8.429-27.599,9.412-49.153c0.985-21.598,1.218-28.493,1.218-83.486s-0.233-61.889-1.218-83.486
		c-0.983-21.553-4.406-36.272-9.412-49.153c-5.175-13.315-12.098-24.608-23.355-35.865c-11.257-11.257-22.55-18.181-35.865-23.355
		c-12.88-5.006-27.599-8.429-49.153-9.412C264.379,0.233,257.483,0,202.49,0L202.49,0z" fill="#ffffff"></path>
	<path style="" d="M202.49,98.509c-57.427,0-103.981,46.554-103.981,103.981s46.554,103.981,103.981,103.981
		s103.981-46.554,103.981-103.981S259.917,98.509,202.49,98.509z M202.49,269.987c-37.277,0-67.497-30.219-67.497-67.497
		s30.219-67.497,67.497-67.497s67.497,30.219,67.497,67.497S239.767,269.987,202.49,269.987z" fill="#ffffff"></path>
	<circle style="" cx="310.58" cy="94.4" r="24.299" fill="#ffffff"></circle>
</g>
</svg>