<svg id="slogan" xmlns="http://www.w3.org/2000/svg" viewBox="0 0 309.36 33.87" width="508"  height="56" ><defs><style>.cls-1{fill:#fff;}.cls-2{fill:#ea118d;}</style></defs><title>LAG_cosmetics_slogan</title>
<path class="cls-1" d="M25,3.94a16.86,16.86,0,0,1-2.13,7A45.09,45.09,0,0,1,10.93,25.75a8.12,8.12,0,0,0,7.74,4.64A22.59,22.59,0,0,0,23.3,30l1.45-.34v1.45l-1.45.34a32.52,32.52,0,0,1-6.24.39q-4.35,0-8.32-4.59-2.32,1.45-3.19,1.89a16.52,16.52,0,0,1-4.11,1.64L0,31.16V29.71l1.45-.34A15.94,15.94,0,0,0,8.36,26,10.35,10.35,0,0,1,8,23.33q0-5.12,5-12.76Q19.24,1,23.3,1,25,1,25,3.94Zm-1.11.68q0-2.27-1-2.27-2.18,0-7.69,9-4.74,7.74-4.74,11.94a7.36,7.36,0,0,0,.1,1.31,68.18,68.18,0,0,0,9.62-11.07Q23.88,8,23.88,4.62Z" fill="#ffffff"></path><path class="cls-1" d="M46.8,31.16l-1.45.34a22.58,22.58,0,0,1-4.64.34,3.62,3.62,0,0,1-1-.1A4.77,4.77,0,0,1,36,33.43q-3.67,0-3.67-4l-7.69,1.69V29.71l1.45-.34q2.71-.58,7.49-2.08a7.86,7.86,0,0,1,4-1.35q3.19,0,3.19,3.38a4.88,4.88,0,0,1-.14,1.06A23.58,23.58,0,0,0,45.34,30l1.45-.34v1.45ZM39.3,28.55a1,1,0,0,0-1.11-1.11,3.59,3.59,0,0,0-2,.63A2.35,2.35,0,0,0,35,30.14a1.5,1.5,0,0,0,1.69,1.69,6.83,6.83,0,0,0,2.08-1.06A3.07,3.07,0,0,1,39.3,28.55Z" fill="#ffffff"></path><path class="cls-1" d="M75.56,31.16l-1.45.34a31.63,31.63,0,0,1-6.24,1A3.31,3.31,0,0,1,65,31.45a15.72,15.72,0,0,1-7.54,2.42q-3.09,0-3.09-2.27a2,2,0,0,1,.41-1,2.22,2.22,0,0,0,.41-0.82,0.2,0.2,0,0,0,0-.15A5.82,5.82,0,0,0,53,29.9q-1.5.24-4.93,0.92l-1.45.34V29.71l1.45-.34q7.69-1.79,10.2-1.79,1,0,1,.68a3.3,3.3,0,0,1-.85,1.57,3.37,3.37,0,0,0-.85,1.52q0,0.58,1.26.58A10.68,10.68,0,0,0,64.3,30q1.06-2.47,2.42-2.47a0.83,0.83,0,0,1,.92,1,2.83,2.83,0,0,1-1.16,2.08,2.27,2.27,0,0,0,1.4.44,31.64,31.64,0,0,0,6.24-1l1.45-.34v1.45Z" fill="#ffffff"></path><path class="cls-1" d="M98.57,31.16l-1.45.34a46.48,46.48,0,0,1-10.64,1.26q-4.4,0-5.51-2.66-1.35.19-4.11,0.73l-1.45.34V29.71q0.1,0,1.45-.34t3.82-.63a5.43,5.43,0,0,1,3-3.77,11.12,11.12,0,0,1,5.73-1.55q3,0,3,2t-2.95,2.85-5.8,1.26q0.39,1.69,4.54,1.69A40,40,0,0,0,97.12,30l1.45-.34v1.45ZM90,25.46q0-.58-1.06-0.58a7.81,7.81,0,0,0-3.34.92q-2.18,1.06-2.18,2.42l4.35-1.11Q90,26.37,90,25.46Z" fill="#ffffff"></path><path class="cls-1" d="M156.23,32.35V11.09h1.94V32.35h-1.94Z" fill="#ffffff"></path><path class="cls-1" d="M163.32,11.09l3.77,11.41,1.6,5.55-0.41-5.78V11.09h2V32.35h-1.83l-3.8-11.26-1.49-5.4,0.34,5.52V32.35h-2V11.09h1.83Z" fill="#ffffff"></path><path class="cls-1" d="M173.46,28V25.77h2V28c-0.07,1.48.71,2.81,2.27,2.81S180,29.58,180,28v-1.6c0-1-1-1.6-2.35-2.43-2.35-1.41-4.14-2.51-4.18-4.6v-4c0-2.55,1.31-4.49,4-4.49,2.46,0,3.84,1.86,3.84,4.41v2.93h-1.86V15.39c0-1.45-.56-2.62-2-2.62-1.16,0-2,.84-2,2.66v3.88c0.07,1.1,1.08,1.83,2.76,2.85s3.69,2.13,3.65,4.15V28c0,2.47-1.34,4.56-4.18,4.56A4.21,4.21,0,0,1,173.46,28Z" fill="#ffffff"></path><path class="cls-1" d="M193.34,22.27a4.21,4.21,0,0,1-4.18,4.45H187v5.63h-2V11.09h4.21a4,4,0,0,1,4.18,4.34v6.85Zm-1.9-6.85c0-1.6-.82-2.55-2.27-2.55H187v12h2.2a2.39,2.39,0,0,0,2.27-2.62V15.43Z" fill="#ffffff"></path><path class="cls-1" d="M196.47,32.35V11.09h1.94V32.35h-1.94Z" fill="#ffffff"></path><path class="cls-1" d="M209.9,32.35h-2V28.47a1.45,1.45,0,0,0-1.57-1.56h-2.69v5.44h-2V11.09h4c1.94,0,4.14,1.18,4.14,4.41v7a3.73,3.73,0,0,1-1.42,3.27,2.91,2.91,0,0,1,1.57,2.74v3.88Zm-6.23-7.23h1.94a2.5,2.5,0,0,0,2.24-2.66v-7c0-1.64-.89-2.62-2.24-2.62h-1.94V25.13Z" fill="#ffffff"></path><path class="cls-1" d="M213.07,32.35V11.09H215V32.35h-1.94Z" fill="#ffffff"></path><path class="cls-1" d="M220.15,11.09l3.77,11.41,1.6,5.55-0.41-5.78V11.09h2V32.35h-1.83l-3.8-11.26L220,15.69l0.34,5.52V32.35h-2V11.09h1.83Z" fill="#ffffff"></path><path class="cls-1" d="M238.73,24.9V28c0,2.7-1.53,4.56-4.14,4.56s-4.21-1.75-4.21-4.56V15.47c0-2.51,1.45-4.56,4.33-4.56,2.42,0,4.07,1.86,4.07,4.56v2.09h-1.83V15.47c0-1.56-.75-2.81-2.24-2.81s-2.35,1.18-2.35,2.81V28c0,1.6.78,2.7,2.24,2.7s2.35-.88,2.35-2.7V26.61h-2.76V24.9h4.55Z" fill="#ffffff"></path><path class="cls-1" d="M255.66,28.93a3.11,3.11,0,0,1-3.17,3.42H247.6V11.09h3.84c2.42,0,4.25,1.33,4.25,4.34l0,6a3.55,3.55,0,0,1-1.79,3.23,2.8,2.8,0,0,1,1.79,2.78v1.52Zm-6.08-16V24.06h1.94a2.56,2.56,0,0,0,2.27-2.7V15.43c0-1.71-.89-2.51-2.35-2.51h-1.86Zm4.21,14.49a1.73,1.73,0,0,0-1.72-1.75h-2.5v4.87h2.91a1.41,1.41,0,0,0,1.3-1.6V27.41Z" fill="#ffffff"></path><path class="cls-1" d="M261,12.84V25h4.44V26.8H261v3.73h5.56v1.83H259V11.09h7.53v1.75H261Z" fill="#ffffff"></path><path class="cls-1" d="M274.34,26.76v0h-3l-0.86,5.55h-1.94l3.21-21.26h2.13l3.24,21.26h-1.94Zm-0.26-1.64L273.64,22l-0.82-6.85L272,22l-0.48,3.16h2.61Z" fill="#ffffff"></path><path class="cls-1" d="M288.11,28c0,2.36-1.38,4.6-4.21,4.6-2.57,0-4.18-2.05-4.18-4.6V11.09h2V28c0,1.41.63,2.81,2.2,2.81,1.72,0,2.27-1.25,2.27-2.81V11.09h1.94V28Z" fill="#ffffff"></path><path class="cls-1" d="M298.1,12.84h-2.83V32.35H293.4V12.84h-2.87V11.09h7.57v1.75Z" fill="#ffffff"></path><path class="cls-1" d="M309.36,11.05l-4,15.94v5.36H303.4V27l-3.88-15.94h1.9l2,7.68,1,5.17,1-5.13,1.94-7.72h2.05Z" fill="#ffffff"></path><path class="cls-2" d="M145.93,16.66c-1.89-2.82-4.15-6-6.6-8a12.81,12.81,0,0,0-8-2.32c-1.94.2-3.77,1.6-5.69,1.79A3.61,3.61,0,0,1,124,8a3.62,3.62,0,0,1-1.42-.76c-1.49-1.23-2.22-3.41-3.72-4.66A12.81,12.81,0,0,0,110.93,0c-3.13.25-6.81,1.68-9.94,3-2.71,1.11-5.49,2.44-8,2,0.15,0.68,6.53,22.59,23.38,27.71,15.8,4.81,34.67-9.38,35.21-9.89C149.13,21.74,147.56,19.09,145.93,16.66ZM132,19.82c-3.59-1.14-7.74-.39-11.25-1.76-3.68-.81-6.7-3.74-10.32-4.8l-0.51-.15a36.89,36.89,0,0,0,8.15,1,27,27,0,0,1,4,.42,26.87,26.87,0,0,1,3.53,1.86,36.35,36.35,0,0,0,7.49,3.8Z" fill="#ea118d"></path></svg>