<svg version="1.1" id="Layer_1" xmlns="http://www.w3.org/2000/svg" xmlns:xlink="http://www.w3.org/1999/xlink" x="0px" y="0px" viewBox="0 0 404.98 404.98" style="enable-background:new 0 0 404.98 404.98;" xml:space="preserve" width="404.98"  height="404.98" >
<g>
	<rect y="0" style="" width="404.98" height="404.98" fill="#d22221"></rect>
	<g>
		<path id="The_Sharpness" style="opacity:0.12;fill-rule:evenodd;clip-rule:evenodd;" d="M173.862,160.563l65.68,43.858
			l9.215-4.783L173.862,160.563z"></path>
		<g id="Lozenge">
			<g>
				<path style="" d="M338.311,147.072c0,0-2.708-19.101-11.019-27.512c-10.54-11.04-22.354-11.094-27.772-11.741
					c-38.787-2.804-96.969-2.804-96.969-2.804h-0.12c0,0-58.181,0-96.969,2.804c-5.418,0.646-17.228,0.701-27.772,11.741
					c-8.31,8.411-11.015,27.512-11.015,27.512s-2.772,22.43-2.772,44.86v21.028c0,22.43,2.772,44.86,2.772,44.86
					s2.704,19.101,11.015,27.512c10.544,11.04,24.394,10.691,30.563,11.848c22.175,2.126,94.239,2.784,94.239,2.784
					s58.242-0.088,97.029-2.891c5.418-0.646,17.232-0.701,27.772-11.741c8.31-8.411,11.019-27.512,11.019-27.512
					s2.768-22.43,2.768-44.86v-21.028C341.078,169.502,338.311,147.072,338.311,147.072z M173.875,238.443l-0.013-77.879
					l74.894,39.075L173.875,238.443z" fill="#ffffff"></path>
			</g>
		</g>
	</g>
</g>
</svg>